<?xml version="1.0" standalone="no"?><!DOCTYPE svg PUBLIC "-//W3C//DTD SVG 1.1//EN" "http://www.w3.org/Graphics/SVG/1.1/DTD/svg11.dtd"><svg t="1732610984804" class="icon" viewBox="0 0 1024 1024" version="1.1" xmlns="http://www.w3.org/2000/svg" p-id="1497" xmlns:xlink="http://www.w3.org/1999/xlink" width="64" height="64"><path d="M46.545455 46.545455m465.454545 0l0 0q465.454545 0 465.454545 465.454545l0 0q0 465.454545-465.454545 465.454545l0 0q-465.454545 0-465.454545-465.454545l0 0q0-465.454545 465.454545-465.454545Z" fill="#F7EFED" p-id="1498"></path><path d="M512 267.636364a244.363636 244.363636 0 1 0 0 488.727272 244.363636 244.363636 0 0 0 0-488.727272z m96.302545 319.488l-15.639272 21.271272a4.375273 4.375273 0 0 1-6.097455 0.930909l-90.205091-65.815272a4.328727 4.328727 0 0 1-1.815272-3.537455V389.818182c0-2.420364 1.954909-4.375273 4.375272-4.375273h26.251637c2.327273 0 4.375273 1.954909 4.375272 4.375273v134.981818l77.730909 56.273455c1.954909 1.396364 2.373818 4.049455 0.977455 6.050909z" fill="#CF2613" p-id="1499"></path></svg>